<svg id="visual" viewBox="0 0 900 600" width="900" height="600" xmlns="http://www.w3.org/2000/svg" xmlns:xlink="http://www.w3.org/1999/xlink" version="1.1"><rect x="0" y="0" width="900" height="600" fill="#1A172A"></rect><defs><linearGradient id="grad1_0" x1="33.3%" y1="100%" x2="100%" y2="0%"><stop offset="20%" stop-color="#8e44ad" stop-opacity="1"></stop><stop offset="80%" stop-color="#8e44ad" stop-opacity="1"></stop></linearGradient></defs><defs><linearGradient id="grad1_1" x1="33.3%" y1="100%" x2="100%" y2="0%"><stop offset="20%" stop-color="#8e44ad" stop-opacity="1"></stop><stop offset="80%" stop-color="#5e3882" stop-opacity="1"></stop></linearGradient></defs><defs><linearGradient id="grad1_2" x1="33.3%" y1="100%" x2="100%" y2="0%"><stop offset="20%" stop-color="#372956" stop-opacity="1"></stop><stop offset="80%" stop-color="#5e3882" stop-opacity="1"></stop></linearGradient></defs><defs><linearGradient id="grad1_3" x1="33.3%" y1="100%" x2="100%" y2="0%"><stop offset="20%" stop-color="#372956" stop-opacity="1"></stop><stop offset="80%" stop-color="#1a172a" stop-opacity="1"></stop></linearGradient></defs><defs><linearGradient id="grad2_0" x1="0%" y1="100%" x2="66.7%" y2="0%"><stop offset="20%" stop-color="#8e44ad" stop-opacity="1"></stop><stop offset="80%" stop-color="#8e44ad" stop-opacity="1"></stop></linearGradient></defs><defs><linearGradient id="grad2_1" x1="0%" y1="100%" x2="66.7%" y2="0%"><stop offset="20%" stop-color="#5e3882" stop-opacity="1"></stop><stop offset="80%" stop-color="#8e44ad" stop-opacity="1"></stop></linearGradient></defs><defs><linearGradient id="grad2_2" x1="0%" y1="100%" x2="66.7%" y2="0%"><stop offset="20%" stop-color="#5e3882" stop-opacity="1"></stop><stop offset="80%" stop-color="#372956" stop-opacity="1"></stop></linearGradient></defs><defs><linearGradient id="grad2_3" x1="0%" y1="100%" x2="66.7%" y2="0%"><stop offset="20%" stop-color="#1a172a" stop-opacity="1"></stop><stop offset="80%" stop-color="#372956" stop-opacity="1"></stop></linearGradient></defs><g transform="translate(900, 600)"><path d="M-459.7 0C-448.1 -81.2 -436.6 -162.4 -398.1 -229.9C-359.7 -297.3 -294.3 -351.1 -223.5 -387.1C-152.7 -423.1 -76.3 -441.4 0 -459.7L0 0Z" fill="#272040"></path><path d="M-344.8 0C-336.1 -60.9 -327.4 -121.8 -298.6 -172.4C-269.8 -223 -220.8 -263.3 -167.6 -290.3C-114.5 -317.4 -57.2 -331.1 0 -344.8L0 0Z" fill="#49316c"></path><path d="M-229.9 0C-224.1 -40.6 -218.3 -81.2 -199.1 -114.9C-179.8 -148.7 -147.2 -175.5 -111.8 -193.6C-76.3 -211.6 -38.2 -220.7 0 -229.9L0 0Z" fill="#753f98"></path><path d="M-114.9 0C-112 -20.3 -109.1 -40.6 -99.5 -57.5C-89.9 -74.3 -73.6 -87.8 -55.9 -96.8C-38.2 -105.8 -19.1 -110.4 0 -114.9L0 0Z" fill="#8e44ad"></path></g><g transform="translate(0, 0)"><path d="M459.7 0C443.3 77.4 426.8 154.8 390.6 225.5C354.3 296.2 298.3 360.2 229.9 398.1C161.5 436 80.7 447.9 0 459.7L0 0Z" fill="#272040"></path><path d="M344.8 0C332.5 58 320.1 116.1 292.9 169.1C265.7 222.2 223.7 270.2 172.4 298.6C121.1 327 60.5 335.9 0 344.8L0 0Z" fill="#49316c"></path><path d="M229.9 0C221.6 38.7 213.4 77.4 195.3 112.7C177.2 148.1 149.1 180.1 114.9 199.1C80.7 218 40.4 223.9 0 229.9L0 0Z" fill="#753f98"></path><path d="M114.9 0C110.8 19.3 106.7 38.7 97.6 56.4C88.6 74.1 74.6 90.1 57.5 99.5C40.4 109 20.2 112 0 114.9L0 0Z" fill="#8e44ad"></path></g></svg>