<svg id="visual" viewBox="0 0 900 600" width="900" height="600" xmlns="http://www.w3.org/2000/svg" xmlns:xlink="http://www.w3.org/1999/xlink" version="1.1"><rect x="0" y="0" width="900" height="600" fill="#1A172A"></rect><path d="M427 0L443.5 14.3C460 28.7 493 57.3 505 85.8C517 114.3 508 142.7 494.7 171.2C481.3 199.7 463.7 228.3 439.2 257C414.7 285.7 383.3 314.3 383 343C382.7 371.7 413.3 400.3 438.8 428.8C464.3 457.3 484.7 485.7 489.3 514.2C494 542.7 483 571.3 477.5 585.7L472 600L0 600L0 585.7C0 571.3 0 542.7 0 514.2C0 485.7 0 457.3 0 428.8C0 400.3 0 371.7 0 343C0 314.3 0 285.7 0 257C0 228.3 0 199.7 0 171.2C0 142.7 0 114.3 0 85.8C0 57.3 0 28.7 0 14.3L0 0Z" fill="#28223d"></path><path d="M294 0L302.2 14.3C310.3 28.7 326.7 57.3 334 85.8C341.3 114.3 339.7 142.7 340.8 171.2C342 199.7 346 228.3 355.5 257C365 285.7 380 314.3 375.3 343C370.7 371.7 346.3 400.3 332.3 428.8C318.3 457.3 314.7 485.7 330.5 514.2C346.3 542.7 381.7 571.3 399.3 585.7L417 600L0 600L0 585.7C0 571.3 0 542.7 0 514.2C0 485.7 0 457.3 0 428.8C0 400.3 0 371.7 0 343C0 314.3 0 285.7 0 257C0 228.3 0 199.7 0 171.2C0 142.7 0 114.3 0 85.8C0 57.3 0 28.7 0 14.3L0 0Z" fill="#3b2d5a"></path><path d="M250 0L245.8 14.3C241.7 28.7 233.3 57.3 248.5 85.8C263.7 114.3 302.3 142.7 313.7 171.2C325 199.7 309 228.3 303.5 257C298 285.7 303 314.3 300.8 343C298.7 371.7 289.3 400.3 285.2 428.8C281 457.3 282 485.7 272.7 514.2C263.3 542.7 243.7 571.3 233.8 585.7L224 600L0 600L0 585.7C0 571.3 0 542.7 0 514.2C0 485.7 0 457.3 0 428.8C0 400.3 0 371.7 0 343C0 314.3 0 285.7 0 257C0 228.3 0 199.7 0 171.2C0 142.7 0 114.3 0 85.8C0 57.3 0 28.7 0 14.3L0 0Z" fill="#533676"></path><path d="M252 0L247.5 14.3C243 28.7 234 57.3 228 85.8C222 114.3 219 142.7 205.8 171.2C192.7 199.7 169.3 228.3 158.5 257C147.7 285.7 149.3 314.3 157.7 343C166 371.7 181 400.3 188.3 428.8C195.7 457.3 195.3 485.7 190 514.2C184.7 542.7 174.3 571.3 169.2 585.7L164 600L0 600L0 585.7C0 571.3 0 542.7 0 514.2C0 485.7 0 457.3 0 428.8C0 400.3 0 371.7 0 343C0 314.3 0 285.7 0 257C0 228.3 0 199.7 0 171.2C0 142.7 0 114.3 0 85.8C0 57.3 0 28.7 0 14.3L0 0Z" fill="#6f3e92"></path><path d="M70 0L82.7 14.3C95.3 28.7 120.7 57.3 128.5 85.8C136.3 114.3 126.7 142.7 111.5 171.2C96.3 199.7 75.7 228.3 66.8 257C58 285.7 61 314.3 65.5 343C70 371.7 76 400.3 87.8 428.8C99.7 457.3 117.3 485.7 128.7 514.2C140 542.7 145 571.3 147.5 585.7L150 600L0 600L0 585.7C0 571.3 0 542.7 0 514.2C0 485.7 0 457.3 0 428.8C0 400.3 0 371.7 0 343C0 314.3 0 285.7 0 257C0 228.3 0 199.7 0 171.2C0 142.7 0 114.3 0 85.8C0 57.3 0 28.7 0 14.3L0 0Z" fill="#8e44ad"></path></svg>